<svg width="92" height="68" viewBox="0 0 92 68" fill="none" xmlns="http://www.w3.org/2000/svg">
<path fill-rule="evenodd" clip-rule="evenodd" d="M25.125 42.5625C22.2782 39.6609 17.3214 37.4148 13.447 36.4541C12.4159 36.1984 11.0664 35.7056 10.6439 34.731C10.138 33.564 10.2678 32.3619 11.1589 31.4542C12.0506 30.5458 13.4685 29.6529 14.375 29.25C16.8208 28.4347 17.7986 30.1114 18.638 31.5506C19.476 32.9876 20.176 34.1879 22.0612 32.4353C23.9258 30.7018 25.688 29.1845 27.0127 28.1941C28.1313 27.3578 29.5452 27.2008 30.9405 27.2622C32.0616 27.3116 33.2145 27.2855 33.4375 27.0625C35.9195 24.5805 39.0195 25.2074 41.9227 27.1803C42.7329 27.731 43.3637 27.4704 44.2663 27.0977L44.2805 27.0919C49.7628 24.8281 52.0517 21.5844 54.0187 18.7968C54.9876 17.4237 55.8785 16.1612 57.0345 15.181C58.6507 13.8106 61.0474 13.904 62.6693 15.2676C65.7935 17.8943 68.8135 23.4436 66.375 33.125L65.0775 39.8718C64.3439 43.6867 65.886 47.5813 69.0325 49.8597L78.375 56.625L91.0272 66.3575C91.2116 66.4993 91.2292 66.7708 91.0647 66.9353C90.9507 67.0493 90.7777 67.0802 90.6312 67.0128L65.109 55.2645C61.6061 53.652 57.4909 54.403 53.7764 55.4385C48.2749 56.9723 42.0712 56.1217 39.5625 55.4375C36.6784 54.6509 30.8987 48.5956 27.0755 44.5902C26.3419 43.8216 25.6803 43.1284 25.125 42.5625ZM30.3474 29.903C30.4407 30.432 29.9428 30.962 29.2353 31.0868C28.5278 31.2115 27.8787 30.8838 27.7854 30.3548C27.6921 29.8258 28.19 29.2958 28.8975 29.171C29.605 29.0463 30.2541 29.374 30.3474 29.903ZM37.9707 28.5686C38.6059 28.2019 38.8962 27.5153 38.6189 27.0352C38.3417 26.555 37.602 26.4631 36.9668 26.8298C36.3316 27.1966 36.0413 27.8831 36.3186 28.3633C36.5958 28.8434 37.3355 28.9354 37.9707 28.5686Z" fill="#258CF5"/>
<path d="M35.36 10.1017C37.2678 9.68449 40.9242 8.92986 43.1125 8.39594C44.3488 8.09431 44.2 7.84413 42.9313 7.94281C29.1116 9.01769 24.2042 12.0128 23.2198 12.4329C22.3914 12.7864 15.341 15.8958 11.152 18.5542C9.49287 19.6071 7.74892 22.8458 9.71393 22.8458C10.1995 22.8458 11.7454 22.148 14.2058 20.126C14.2534 20.0868 14.3018 20.0475 14.351 20.0078C18.9615 16.2932 25.0731 13.0754 30.7267 11.3169C32.1001 10.8897 33.6436 10.477 35.36 10.1017Z" fill="#258CF5" stroke="#258CF5"/>
<path d="M19.4727 23.8291C18.7947 25.0827 19.8462 25.6092 20.2196 25.6092C20.5931 25.6092 21.782 25.058 23.6742 23.4608C25.5649 21.8648 29.408 20.0625 29.883 19.9006C30.5133 19.6857 38.8494 16.0948 40.06 16.0948C41.0413 16.0948 39.6997 15.3099 38.7318 15.4717C32.6555 16.4877 20.1581 22.5617 19.4727 23.8291Z" fill="#258CF5" stroke="#258CF5"/>
<path d="M7.02493 14.8679C7.37825 14.6031 7.77216 14.3263 8.19273 14.0452C12.85 10.9319 18.7436 8.46113 24.0722 6.73236C25.8675 6.14993 27.927 5.51885 30.2215 4.84363C32.8905 4.0582 37.9093 2.95533 40.8379 3.0175C49.5706 3.20286 49.5726 0.530835 40.8379 0.530846C37.0539 0.53085 26.8157 3.25062 22.1676 4.84363C21.2277 5.20938 9.33603 10.1427 3.60216 13.397C1.85489 14.3887 0.0903297 17.5877 2.0994 17.5877C2.63189 17.5877 4.32702 16.89 7.02493 14.8679Z" fill="#258CF5" stroke="#258CF5"/>
</svg>
